<?xml version="1.0" encoding="UTF-8" standalone="no"?>
<svg
   xmlns:dc="http://purl.org/dc/elements/1.1/"
   xmlns:cc="http://creativecommons.org/ns#"
   xmlns:rdf="http://www.w3.org/1999/02/22-rdf-syntax-ns#"
   xmlns:svg="http://www.w3.org/2000/svg"
   xmlns="http://www.w3.org/2000/svg"
   version="1.1"
   width="50"
   viewBox="0 0 50 50"
   height="50"
   id="outline">
  <metadata
     id="metadata19">
    <rdf:RDF>
      <cc:Work
         rdf:about="">
        <dc:format>image/svg+xml</dc:format>
        <dc:type
           rdf:resource="http://purl.org/dc/dcmitype/StillImage" />
        <dc:title></dc:title>
      </cc:Work>
    </rdf:RDF>
  </metadata>
  <defs
     id="defs17" />
  <path
     style="fill:#f39d23;fill-opacity:1;stroke-width:0.10416666"
     id="path2"
     d="m 7.171732,35.76594 17.5,7.5 a 0.8331875,0.8331875 0 0 0 0.656536,0 l 17.5,-7.5 a 0.82952708,0.82952708 0 0 0 0.412051,-1.14511 l 0.0014,-7.3e-4 -17.5,-34.16665986 a 0.833375,0.833375 0 0 0 -1.48346,0 l -17.5,34.16665986 0.0014,7.3e-4 A 0.82952708,0.82952708 0 0 0 7.17171,35.76594 Z M 25.833333,4.2883201 40.705382,33.32425 25.833333,26.95052 Z M 24.166667,26.95052 9.294618,33.32425 24.166667,4.2883201 Z m 0,1.81325 V 41.23623 L 9.615478,35 Z m 1.666666,12.47246 V 28.76377 L 40.384522,35 Z" />
  <path
     style="fill:#f39d23;fill-opacity:1;stroke-width:0.10416666"
     id="path4"
     d="M 40.833333,46.66667 H 42.5 v 1.66666 h -1.666667 z" />
  <path
     style="fill:#f39d23;fill-opacity:1;stroke-width:0.10416666"
     id="path6"
     d="m 0.833333,39.16667 h 2.31816 l 16.363646,7.5 h -8.681806 v 1.66666 H 22.5 v 0.83334 A 0.83330937,0.83330937 0 0 0 23.333333,50 h 3.333334 A 0.83330937,0.83330937 0 0 0 27.5,49.16667 v -0.83334 h 11.666667 v -1.66666 h -8.6818 l 16.363645,-7.5 h 2.318155 A 0.83330937,0.83330937 0 0 0 50,38.33333 V 35 a 0.83330937,0.83330937 0 0 0 -0.833333,-0.83333 h -0.833334 v -7.5 h -1.666666 v 7.5 H 45.833333 A 0.83330937,0.83330937 0 0 0 45,35 v 3.18055 L 27.5,46.20138 V 45.83333 A 0.83330937,0.83330937 0 0 0 26.666667,45 H 23.333333 A 0.83330937,0.83330937 0 0 0 22.5,45.83333 v 0.36805 L 5,38.18055 V 35 A 0.83330937,0.83330937 0 0 0 4.166667,34.16667 H 3.333333 v -7.5 H 1.666667 v 7.5 H 0.833333 A 0.83330937,0.83330937 0 0 0 0,35 v 3.33333 a 0.83330937,0.83330937 0 0 0 0.833333,0.83334 z m 45.833334,-3.33334 h 1.666666 V 37.5 h -1.666666 z m -22.5,10.83334 h 1.666666 v 1.66666 h -1.666666 z m -22.5,-10.83334 H 3.333333 V 37.5 H 1.666667 Z" />
  <path
     style="fill:#f39d23;fill-opacity:1;stroke-width:0.10416666"
     id="path8"
     d="m 7.5,46.66667 h 1.666667 v 1.66666 H 7.5 Z" />
  <path
     style="fill:#f39d23;fill-opacity:1;stroke-width:0.10416666"
     id="path10"
     d="m 46.666667,23.33333 h 1.666666 V 25 h -1.666666 z" />
  <path
     style="fill:#f39d23;fill-opacity:1;stroke-width:0.10416666"
     id="path12"
     d="M 1.666667,23.33333 H 3.333333 V 25 H 1.666667 Z" />
</svg>
