<?xml version="1.0" encoding="UTF-8" standalone="no"?>
<svg
   xmlns:dc="http://purl.org/dc/elements/1.1/"
   xmlns:cc="http://creativecommons.org/ns#"
   xmlns:rdf="http://www.w3.org/1999/02/22-rdf-syntax-ns#"
   xmlns:svg="http://www.w3.org/2000/svg"
   xmlns="http://www.w3.org/2000/svg"
   version="1.1"
   width="50"
   viewBox="0 0 50 49.936993"
   height="49.936993"
   enable-background="new 0 0 512 512"
   id="Layer_1">
  <metadata
     id="metadata23">
    <rdf:RDF>
      <cc:Work
         rdf:about="">
        <dc:format>image/svg+xml</dc:format>
        <dc:type
           rdf:resource="http://purl.org/dc/dcmitype/StillImage" />
        <dc:title></dc:title>
      </cc:Work>
    </rdf:RDF>
  </metadata>
  <defs
     id="defs21" />
  <g
     transform="matrix(0.09765625,0,0,0.09765625,0,-0.03146329)"
     style="fill:#f39d23;fill-opacity:1"
     id="g16">
    <path
       style="fill:#f39d23;fill-opacity:1"
       id="path2"
       d="M 373.147,20.122 77.707,0.361 C 68.076,-0.277 59.723,7.026 59.078,16.654 L 56.767,51.211 H 17.5 C 7.851,51.211 0,59.062 0,68.711 v 425.466 c 0,9.649 7.851,17.5 17.5,17.5 h 226.141 c 1.96,0 3.902,-0.801 5.292,-2.185 l 34.138,-33.987 c 0.347,0.074 0.701,0.133 1.065,0.157 l 58.282,3.898 c 9.302,0.614 18.005,-6.952 18.629,-16.293 L 389.44,38.752 c 0.639,-9.528 -6.766,-17.993 -16.293,-18.63 z M 251.141,486.024 v -52.1 c 0,-1.378 1.122,-2.5 2.5,-2.5 h 51.9 z m 94.939,-23.757 c -0.244,1.51 -1.131,2.286 -2.66,2.327 l -46.28,-3.096 31.752,-31.611 c 1.414,-1.407 2.209,-3.32 2.209,-5.315 V 68.712 c 0,-9.649 -7.851,-17.5 -17.5,-17.5 h -77.993 c -9.697,0 -9.697,15 0,15 h 77.993 c 1.379,0 2.5,1.122 2.5,2.5 v 347.712 h -62.46 c -9.649,0 -17.5,7.851 -17.5,17.5 v 62.753 H 17.5 c -1.378,0 -2.5,-1.122 -2.5,-2.5 V 68.712 c 0,-1.378 1.122,-2.5 2.5,-2.5 h 178.168 c 9.697,0 9.697,-15 0,-15 H 71.8 l 2.244,-33.556 c 0.244,-1.511 1.131,-2.286 2.661,-2.327 l 295.44,19.76 c 1.511,0.244 2.287,1.131 2.328,2.661 z" />
    <path
       style="fill:#f39d23;fill-opacity:1"
       id="path4"
       d="M 267.827,237.047 H 63.274 c -4.142,0 -7.5,3.358 -7.5,7.5 0,4.142 3.358,7.5 7.5,7.5 h 204.553 c 4.143,0 7.5,-3.358 7.5,-7.5 0,-4.142 -3.357,-7.5 -7.5,-7.5 z" />
    <path
       style="fill:#f39d23;fill-opacity:1"
       id="path6"
       d="M 267.827,289.332 H 63.274 c -4.142,0 -7.5,3.358 -7.5,7.5 0,4.142 3.358,7.5 7.5,7.5 h 204.553 c 4.143,0 7.5,-3.358 7.5,-7.5 0,-4.142 -3.357,-7.5 -7.5,-7.5 z" />
    <path
       style="fill:#f39d23;fill-opacity:1"
       id="path8"
       d="m 55.774,192.262 c 0,4.142 3.358,7.5 7.5,7.5 h 204.553 c 4.143,0 7.5,-3.358 7.5,-7.5 0,-4.142 -3.357,-7.5 -7.5,-7.5 H 63.274 c -4.142,0 -7.5,3.358 -7.5,7.5 z" />
    <path
       style="fill:#f39d23;fill-opacity:1"
       id="path10"
       d="m 91.807,139.977 c 0,4.142 3.358,7.5 7.5,7.5 h 132.487 c 4.142,0 7.5,-3.358 7.5,-7.5 0,-4.142 -3.358,-7.5 -7.5,-7.5 H 99.307 c -4.142,0 -7.5,3.358 -7.5,7.5 z" />
    <path
       style="fill:#f39d23;fill-opacity:1"
       id="path12"
       d="m 194.755,438.787 c -13.489,0.036 -26.978,0.065 -40.467,0.086 -4.534,0.007 -9.067,0.013 -13.6,0.016 -8.215,0.006 -13.75,-1.643 -15.59,-10.679 -1.556,-7.64 -12.364,-6.613 -14.464,0 -5.19,16.337 -13.774,9.936 -18.582,-1.053 -4.797,-10.963 -6.027,-23.233 -8.122,-34.9 -1.54,-8.573 -14.506,-6.17 -14.732,1.994 -0.298,10.751 -1.302,21.331 -4.031,31.758 -2.815,10.758 -7.034,21.097 -11.222,31.376 -3.651,8.961 10.867,12.816 14.464,3.988 3.711,-9.108 7.427,-18.266 10.193,-27.714 5.14,12.36 15.774,26.34 30.927,18.101 2.819,-1.533 5.452,-3.712 7.763,-6.253 7.88,9.106 19.609,8.388 30.584,8.375 15.627,-0.02 31.254,-0.054 46.881,-0.095 9.649,-0.025 9.667,-15.025 -0.002,-15 z" />
    <path
       style="fill:#f39d23;fill-opacity:1"
       id="path14"
       d="m 505.932,246.439 c -3.897,-3.878 -9.255,-5.867 -14.695,-6.014 l -5.668,0.028 v -10.719 c 0,-6.529 -3.878,-13.427 -9.433,-16.862 v -15.098 c 0,-31.069 -48.372,-30.934 -48.372,0.146 v 15.1 c -5.659,3.498 -9.455,9.741 -9.455,16.852 v 10.982 c -24.966,1.7 -25.037,39.745 0.028,41.232 0.16,33.575 0.152,66.6 -0.028,100.737 -0.049,9.414 14.949,9.966 15,0.079 0.18,-34.166 0.188,-67.22 0.029,-100.823 l 37.211,-0.185 c 0,0 -0.048,110.848 -0.048,160.784 0,24.338 -37.219,24.5 -37.219,-0.253 l 0.013,-13.677 c 0.585,-9.68 -14.387,-10.583 -14.973,-0.904 v 12.834 c 0,11 3.402,20.316 9.988,26.869 0.586,15.693 7.198,30.878 18.369,41.956 3.205,3.18 7.642,2.208 10.744,-0.182 11.365,-11.385 17.769,-26.394 18.169,-42.414 4.951,-4.931 9.908,-9.896 9.908,-26.896 l 0.006,-68.351 C 498.476,375.349 512,365.312 512,351.714 v -90.672 c 0,-5.523 -2.155,-10.709 -6.068,-14.603 z m -72.623,-5.727 v -10.841 c 0,-2.219 1.523,-4.08 3.573,-4.633 l 30.025,-0.149 c 0.84,0.208 1.615,0.605 2.243,1.231 0.915,0.911 1.419,2.123 1.419,3.414 v 10.794 z m 18.671,-52 c 4.604,0 9.155,4.514 9.155,9.062 v 12.166 l -18.372,0.091 V 197.92 c 0.001,-5.053 4.133,-9.183 9.217,-9.208 z m -0.011,303.901 c -3.487,-4.942 -6.009,-10.531 -7.417,-16.406 2.322,0.503 4.674,0.765 7.027,0.765 2.627,0 5.253,-0.326 7.839,-0.957 -1.374,5.964 -3.892,11.587 -7.449,16.598 z M 497,351.714 c 0,7.101 -11.452,7.66 -11.452,0.131 0,0 0.013,-70.974 0.021,-77.48 0.005,-4.196 -3.483,-7.509 -7.558,-7.509 l -58.389,0.29 c -7.242,0 -7.073,-11.331 0.074,-11.366 l 71.615,-0.355 c 3.463,0.295 5.359,2.168 5.688,5.617 v 90.672 z" />
  </g>
</svg>
