<?xml version="1.0" encoding="UTF-8" standalone="no"?>
<svg
   xmlns:dc="http://purl.org/dc/elements/1.1/"
   xmlns:cc="http://creativecommons.org/ns#"
   xmlns:rdf="http://www.w3.org/1999/02/22-rdf-syntax-ns#"
   xmlns:svg="http://www.w3.org/2000/svg"
   xmlns="http://www.w3.org/2000/svg"
   id="svg24"
   version="1.1"
   width="37.499996pt"
   viewBox="0 0 37.506384 37.493591"
   height="37.493591pt">
  <metadata
     id="metadata30">
    <rdf:RDF>
      <cc:Work
         rdf:about="">
        <dc:format>image/svg+xml</dc:format>
        <dc:type
           rdf:resource="http://purl.org/dc/dcmitype/StillImage" />
        <dc:title></dc:title>
      </cc:Work>
    </rdf:RDF>
  </metadata>
  <defs
     id="defs28" />
  <path
     style="stroke-width:0.07812497;fill:#f39d23;fill-opacity:1"
     id="path2"
     d="m 37.437425,8.846745 c -0.129089,-0.48004 -0.444031,-0.88928 -0.874939,-1.13739 -0.431213,-0.24933 -0.943908,-0.31678 -1.424865,-0.18769 -0.480346,0.1294 -0.889587,0.44403 -1.137695,0.87494 l -0.3125,0.54383 c -0.296935,-0.1706 -0.676269,-0.0702 -0.849914,0.22522 l -1.587524,2.70599 -0.543823,-0.3125 c -0.144043,-0.0833 -0.315551,-0.1059 -0.476074,-0.0626 -0.160827,0.0436 -0.297546,0.14923 -0.380249,0.29388 -0.169372,0.29877 -0.06622,0.67841 0.231324,0.84992 l 0.543823,0.3125 -5.312498,9.20623 -1.312561,3.50647 -0.625,1.16852 c -0.365905,0.63659 -0.326843,1.42791 0.100098,2.02514 l -1.40625,1.72485 -0.393676,-0.98724 c -0.177612,-0.44006 -0.588684,-0.74158 -1.061401,-0.7785 -0.473022,-0.0372 -0.926208,0.19653 -1.170044,0.60333 l -0.224914,0.38116 -0.212402,-2.49999 c -0.04883,-0.59143 -0.506897,-1.0669 -1.095886,-1.13831 -0.589294,-0.0711 -1.147156,0.28198 -1.335449,0.84473 l -1.537475,4.61242 c -0.107422,0.32623 0.06836,0.6778 0.393677,0.78766 0.06104,0.0284 0.126648,0.0455 0.193786,0.0497 0.268555,9.2e-4 0.507813,-0.17028 0.593872,-0.4248 l 1.531066,-4.61243 0.218811,2.53723 c 0.04517,0.54139 0.434265,0.99152 0.96344,1.1142 0.529175,0.12268 1.07666,-0.11047 1.355285,-0.57648 l 0.231323,-0.38147 0.387573,0.98145 c 0.16449,0.41351 0.536499,0.70862 0.976868,0.77423 0.440368,0.0656 0.882263,-0.10803 1.160583,-0.45563 l 1.456298,-1.84356 c 0.161133,0.0421 0.327148,0.0632 0.493774,0.0626 0.669861,0.005 1.291809,-0.3476 1.631164,-0.92529 l 0.625,-1.04371 2.381286,-2.89367 5.36865,-9.31885 0.543823,0.3125 c 0.144958,0.083 0.250549,0.22004 0.293579,0.38147 0.04333,0.16022 0.02075,0.33112 -0.06226,0.47486 l -2.499999,4.33136 c -0.0943,0.14221 -0.126343,0.31677 -0.0885,0.48339 0.03784,0.16632 0.141907,0.31006 0.288391,0.39765 0.144043,0.0836 0.315552,0.1062 0.476074,0.0629 0.160828,-0.0436 0.297546,-0.14923 0.380249,-0.29388 l 2.499999,-4.33136 c 0.249329,-0.43121 0.316773,-0.94391 0.187378,-1.42486 -0.129394,-0.48035 -0.444031,-0.88959 -0.874939,-1.1377 l -0.543823,-0.3125 1.5625,-2.7063 c 0.170593,-0.29693 0.07019,-0.67596 -0.224915,-0.84991 l 0.3125,-0.54382 c 0.256043,-0.43793 0.323792,-0.961 0.187378,-1.44989 z m -2.356261,0.17486 c 0.0827,-0.14465 0.220031,-0.25055 0.381469,-0.29358 0.160523,-0.0397 0.3302,-0.0174 0.474854,0.0626 0.144958,0.0827 0.250549,0.22004 0.293884,0.38117 0.03967,0.16052 0.0174,0.3302 -0.06256,0.47485 l -0.3125,0.54383 -1.087646,-0.625 z m -8.518674,17.45025 -0.3125,-0.18127 -0.924987,-0.53772 0.887451,-2.37488 1.968688,1.13739 z m -1.874999,1.80603 c -0.263977,-0.18402 -0.345154,-0.53802 -0.187378,-0.81878 l 0.3125,-0.54352 1.087341,0.625 -0.3125,0.53741 c -0.08759,0.15198 -0.23468,0.26001 -0.405884,0.29816 -0.171203,0.0378 -0.350341,0.002 -0.494079,-0.0983 z m 4.206236,-4.78729 -2.162475,-1.25 4.999998,-8.66271 2.162475,1.24999 z m 5.624998,-9.74395 -2.162475,-1.25 1.25,-2.16248 2.162475,1.25 z m 0,0" />
  <path
     style="stroke-width:0.07812497;fill:#f39d23;fill-opacity:1"
     id="path4"
     d="m 9.862362,27.965385 -2.2122184,2.20642 -1.3250727,-1.32507 c -0.2438353,-0.24231 -0.637512,-0.24231 -0.8813473,0 -0.1184082,0.11749 -0.1849365,0.2771 -0.1849365,0.44372 0,0.16663 0.066528,0.32654 0.1849365,0.44373 l 1.3250727,1.32507 c 0.2343749,0.23255 0.5511472,0.36286 0.8813473,0.36255 0.3320312,0.002 0.6515501,-0.12848 0.8874509,-0.36255 l 2.2061145,-2.21252 c 0.212403,-0.24811 0.198059,-0.61768 -0.03265,-0.84839 -0.231018,-0.23102 -0.600586,-0.24536 -0.848694,-0.033 z m 0,0" />
  <path
     style="stroke-width:0.07812497;fill:#f39d23;fill-opacity:1"
     id="path6"
     d="m 2.4999991,29.646595 c 0,2.93427 2.3785391,5.3125 5.312498,5.3125 2.9339589,0 5.3124979,-2.37823 5.3124979,-5.3125 0,-0.34515 -0.279846,-0.62499 -0.625,-0.62499 -0.345153,0 -0.624999,0.27984 -0.624999,0.62499 0,2.24366 -1.818847,4.0625 -4.0624989,4.0625 -2.2436515,0 -4.0624985,-1.81884 -4.0624985,-4.0625 0,-2.24365 1.818847,-4.06249 4.0624985,-4.06249 0.8795162,-0.002 1.735534,0.28289 2.4374379,0.81268 0.276184,0.20721 0.66803,0.15106 0.874939,-0.12512 0.207214,-0.27619 0.151367,-0.66773 -0.124817,-0.87494 -1.6098017,-1.20728 -3.7637316,-1.40137 -5.5633525,-0.50171 -1.7999261,0.89996 -2.9367054,2.73956 -2.9367054,4.75158 z m 0,0" />
  <path
     style="stroke-width:0.07812497;fill:#f39d23;fill-opacity:1"
     id="path8"
     d="m 22.499992,4.959105 c 0.345153,0 0.624999,-0.27954 0.624999,-0.625 0,-0.34515 -0.279846,-0.625 -0.624999,-0.625 H 6.2499977 c -0.3451537,0 -0.6249998,0.27985 -0.6249998,0.625 v 2.5 c 0,0.34546 0.2798461,0.625 0.6249998,0.625 H 22.499992 c 0.345153,0 0.624999,-0.27954 0.624999,-0.625 0,-0.34515 -0.279846,-0.625 -0.624999,-0.625 H 6.8749974 v -1.25 z m 0,0" />
  <path
     style="stroke-width:0.07812497;fill:#f39d23;fill-opacity:1"
     id="path10"
     d="m 8.124997,8.709105 c -0.3451537,0 -0.6249998,0.27985 -0.6249998,0.625 0,0.34546 0.2798461,0.625 0.6249998,0.625 h 12.499995 c 0.345154,0 0.625,-0.27954 0.625,-0.625 0,-0.34515 -0.279846,-0.625 -0.625,-0.625 z m 0,0" />
  <path
     style="stroke-width:0.07812497;fill:#f39d23;fill-opacity:1"
     id="path12"
     d="M 24.374991,13.084105 H 10.624996 c -0.345154,0 -0.6249997,0.27985 -0.6249997,0.625 0,0.34546 0.2798457,0.625 0.6249997,0.625 h 13.749995 c 0.345154,0 0.625,-0.27954 0.625,-0.625 0,-0.34515 -0.279846,-0.625 -0.625,-0.625 z m 0,0" />
  <path
     style="stroke-width:0.07812497;fill:#f39d23;fill-opacity:1"
     id="path14"
     d="m 18.124993,17.459105 c 0,-0.34515 -0.279846,-0.625 -0.624999,-0.625 H 4.9999981 c -0.3451537,0 -0.6249997,0.27985 -0.6249997,0.625 0,0.34546 0.279846,0.625 0.6249997,0.625 H 17.499994 c 0.345153,0 0.624999,-0.27954 0.624999,-0.625 z m 0,0" />
  <path
     style="stroke-width:0.07812497;fill:#f39d23;fill-opacity:1"
     id="path16"
     d="m 24.374991,16.834105 h -4.374998 c -0.345154,0 -0.625,0.27985 -0.625,0.625 0,0.34546 0.279846,0.625 0.625,0.625 h 4.374998 c 0.345154,0 0.625,-0.27954 0.625,-0.625 0,-0.34515 -0.279846,-0.625 -0.625,-0.625 z m 0,0" />
  <path
     style="stroke-width:0.07812497;fill:#f39d23;fill-opacity:1"
     id="path18"
     d="m 11.249996,21.209105 c 0.345154,0 0.625,-0.27954 0.625,-0.625 0,-0.34516 -0.279846,-0.625 -0.625,-0.625 H 4.9999981 c -0.3451537,0 -0.6249997,0.27984 -0.6249997,0.625 0,0.34546 0.279846,0.625 0.6249997,0.625 z m 0,0" />
  <path
     style="stroke-width:0.07812497;fill:#f39d23;fill-opacity:1"
     id="path20"
     d="m 13.749995,21.209105 h 4.374998 c 0.345154,0 0.625,-0.27954 0.625,-0.625 0,-0.34516 -0.279846,-0.625 -0.625,-0.625 h -4.374998 c -0.345154,0 -0.625,0.27984 -0.625,0.625 0,0.34546 0.279846,0.625 0.625,0.625 z m 0,0" />
  <path
     style="stroke-width:0.07812497;fill:#f39d23;fill-opacity:1"
     id="path22"
     d="m 28.12499,28.709105 c -0.345154,0 -0.625,0.27984 -0.625,0.625 v 6.24999 c 0,0.34546 -0.279846,0.625 -0.625,0.625 H 1.8749993 c -0.3451537,0 -0.6249998,-0.27954 -0.6249998,-0.625 V 1.834115 c 0,-0.34516 0.2798461,-0.625 0.6249998,-0.625 H 26.87499 c 0.345154,0 0.625,0.27984 0.625,0.625 v 11.73766 c 0,0.34516 0.279846,0.625 0.625,0.625 0.345153,0 0.624999,-0.27984 0.624999,-0.625 V 1.834115 c 0,-1.03547 -0.839538,-1.875 -1.874999,-1.875 H 1.8749993 C 0.83953828,-0.040885 0,0.798645 0,1.834115 v 33.74998 c 0,1.03577 0.83953828,1.875 1.8749993,1.875 H 26.87499 c 1.035461,0 1.874999,-0.83923 1.874999,-1.875 v -6.24999 c 0,-0.34516 -0.279846,-0.625 -0.624999,-0.625 z m 0,0" />
</svg>
