<?xml version="1.0" encoding="UTF-8" standalone="no"?>
<svg
   xmlns:dc="http://purl.org/dc/elements/1.1/"
   xmlns:cc="http://creativecommons.org/ns#"
   xmlns:rdf="http://www.w3.org/1999/02/22-rdf-syntax-ns#"
   xmlns:svg="http://www.w3.org/2000/svg"
   xmlns="http://www.w3.org/2000/svg"
   height="49.839649"
   width="50"
   xml:space="preserve"
   viewBox="0 0 50.000001 49.83965"
   y="0px"
   x="0px"
   id="Capa_1"
   version="1.1"><metadata
   id="metadata49"><rdf:RDF><cc:Work
       rdf:about=""><dc:format>image/svg+xml</dc:format><dc:type
         rdf:resource="http://purl.org/dc/dcmitype/StillImage" /><dc:title></dc:title></cc:Work></rdf:RDF></metadata><defs
   id="defs47" />
<g
   style="fill:#f39d23;fill-opacity:1"
   transform="matrix(0.09765625,0,0,0.09765625,0,-0.08007812)"
   id="g6">
	<g
   style="fill:#f39d23;fill-opacity:1"
   id="g4">
		<path
   style="fill:#f39d23;fill-opacity:1"
   id="path2"
   d="m 453.034,361.322 c -2.808,-1.164 -6.04,-0.521 -8.19,1.628 l -82.126,82.126 c -2.149,2.15 -2.792,5.382 -1.628,8.19 1.162,2.809 3.904,4.639 6.943,4.639 h 82.126 c 4.151,0 7.515,-3.364 7.515,-7.515 v -82.126 c -10e-4,-3.039 -1.832,-5.779 -4.64,-6.942 z m -66.861,81.554 56.469,-56.469 v 56.469 z" />
	</g>
</g>
<g
   style="fill:#f39d23;fill-opacity:1"
   transform="matrix(0.09765625,0,0,0.09765625,0,-0.08007812)"
   id="g12">
	<g
   style="fill:#f39d23;fill-opacity:1"
   id="g10">
		<path
   style="fill:#f39d23;fill-opacity:1"
   id="path8"
   d="m 507.361,240.867 c -2.808,-1.164 -6.04,-0.521 -8.19,1.628 l -22.507,22.507 V 111.971 c 0,-4.151 -3.365,-7.515 -7.515,-7.515 h -57.741 l 20.96,-20.96 c 0.003,-0.003 0.006,-0.007 0.009,-0.01 L 452.573,63.29 c 4.327,-4.327 6.71,-10.083 6.71,-16.203 0,-6.12 -2.383,-11.874 -6.71,-16.203 L 429.219,7.53 c -4.327,-4.327 -10.083,-6.71 -16.203,-6.71 -6.12,0 -11.875,2.383 -16.203,6.71 l -20.206,20.206 -24.416,24.416 -52.303,52.303 H 66.62 V 30.11 c 0,-4.151 -3.365,-7.515 -7.515,-7.515 C 26.515,22.597 0,49.11 0,81.702 v 319.186 c 0,0.555 0.064,1.095 0.178,1.615 1.038,13.829 7.021,26.678 17.02,36.432 10.688,10.424 24.797,16.165 39.729,16.165 h 229.638 l -43.249,43.249 c -2.149,2.15 -2.792,5.381 -1.629,8.19 1.163,2.808 3.904,4.639 6.943,4.639 h 255.855 c 4.15,0 7.515,-3.364 7.515,-7.515 V 247.81 c 0,-3.039 -1.832,-5.78 -4.639,-6.943 z M 407.443,18.159 c 3.072,-3.074 8.077,-3.074 11.149,0 l 23.355,23.355 c 3.074,3.073 3.074,8.076 0,11.15 L 427.056,67.556 392.55,33.051 Z m -25.521,25.52 34.505,34.504 -13.789,13.789 -34.503,-34.504 z m 115.05,288.573 h -13.865 c -4.151,0 -7.515,3.364 -7.515,7.515 0,4.151 3.364,7.515 7.515,7.515 h 13.865 v 22.646 h -13.865 c -4.151,0 -7.515,3.364 -7.515,7.515 0,4.151 3.364,7.515 7.515,7.515 h 13.865 v 22.645 h -13.865 c -4.151,0 -7.515,3.364 -7.515,7.515 0,4.151 3.364,7.515 7.515,7.515 h 13.865 v 22.646 h -13.865 c -4.151,0 -7.515,3.365 -7.515,7.515 0,4.151 3.364,7.515 7.515,7.515 h 13.865 v 35.842 h -230.2 l 75.908,-75.907 c 2.935,-2.936 2.935,-7.693 0,-10.628 -0.337,-0.337 -0.699,-0.629 -1.078,-0.889 -2.926,-2.004 -6.952,-1.709 -9.551,0.889 l -30.456,30.456 H 56.928 c -22.792,0 -41.14,-17.794 -41.862,-40.545 0.043,-1.428 0.154,-2.844 0.332,-4.244 10e-4,-0.008 0.002,-0.016 0.003,-0.024 0.084,-0.665 0.185,-1.327 0.3,-1.985 0.013,-0.075 0.027,-0.15 0.04,-0.225 0.105,-0.587 0.223,-1.171 0.352,-1.753 0.036,-0.162 0.074,-0.324 0.112,-0.485 0.114,-0.492 0.237,-0.981 0.369,-1.468 0.072,-0.264 0.147,-0.525 0.224,-0.788 0.11,-0.382 0.224,-0.763 0.345,-1.14 0.121,-0.377 0.25,-0.75 0.381,-1.123 0.091,-0.261 0.181,-0.522 0.279,-0.781 0.183,-0.492 0.377,-0.979 0.577,-1.462 0.057,-0.139 0.113,-0.28 0.172,-0.419 0.257,-0.6 0.524,-1.193 0.806,-1.779 0.012,-0.025 0.023,-0.05 0.035,-0.075 5.878,-12.164 17.183,-21.233 30.75,-24.047 0.038,-0.008 0.076,-0.017 0.114,-0.025 0.622,-0.127 1.25,-0.236 1.882,-0.337 0.105,-0.017 0.21,-0.038 0.317,-0.054 0.571,-0.087 1.148,-0.155 1.725,-0.22 0.162,-0.018 0.323,-0.043 0.486,-0.059 0.557,-0.056 1.119,-0.093 1.681,-0.128 0.178,-0.011 0.356,-0.03 0.534,-0.039 0.736,-0.037 1.478,-0.056 2.223,-0.056 4.15,0 7.515,-3.364 7.515,-7.515 v -54.489 c 0,-4.151 -3.365,-7.515 -7.515,-7.515 -4.15,0 -7.515,3.364 -7.515,7.515 v 47.447 c -12.69,1.605 -24.469,7.265 -33.757,16.335 -0.977,0.954 -1.903,1.946 -2.805,2.954 V 81.702 c 0,-21.741 15.826,-39.858 36.561,-43.436 v 73.705 152.777 0.001 c 0,4.15 3.365,7.515 7.515,7.515 4.15,0 7.515,-3.365 7.515,-7.515 v -0.001 -145.262 h 218.24 l -41.544,41.544 c -2.935,2.936 -2.935,7.693 0,10.628 2.935,2.934 7.693,2.934 10.627,0 l 54.373,-54.373 c 0.002,-0.002 0.003,-0.004 0.005,-0.005 l 49.185,-49.185 34.503,34.505 -4.048,4.048 c -0.003,0.003 -0.007,0.006 -0.01,0.009 l -151.528,151.53 -34.504,-34.504 29.868,-29.868 c 2.935,-2.936 2.935,-7.693 0,-10.628 -2.935,-2.934 -7.693,-2.934 -10.627,0 l -35.183,35.182 c -0.188,0.188 -0.364,0.387 -0.529,0.591 -0.055,0.068 -0.104,0.141 -0.156,0.212 -0.106,0.141 -0.21,0.283 -0.307,0.431 -0.055,0.086 -0.105,0.174 -0.157,0.263 -0.083,0.14 -0.163,0.282 -0.236,0.427 -0.048,0.094 -0.091,0.189 -0.135,0.287 -0.067,0.147 -0.129,0.297 -0.186,0.447 -0.02,0.053 -0.046,0.103 -0.065,0.156 l -14.641,41.475 -9.982,28.279 c -0.132,0.376 -0.227,0.758 -0.298,1.143 h -24.992 c -4.15,0 -7.515,3.364 -7.515,7.515 0,4.151 3.365,7.515 7.515,7.515 h 208.114 c 4.151,0 7.515,-3.364 7.515,-7.515 0,-4.151 -3.364,-7.515 -7.515,-7.515 H 193.093 l 45.83,-16.178 c 0.038,-0.014 0.074,-0.033 0.112,-0.047 0.178,-0.066 0.353,-0.14 0.526,-0.219 0.069,-0.032 0.138,-0.062 0.205,-0.095 0.18,-0.09 0.357,-0.189 0.531,-0.295 0.056,-0.034 0.114,-0.065 0.169,-0.1 0.181,-0.116 0.357,-0.243 0.53,-0.377 0.043,-0.033 0.088,-0.062 0.13,-0.096 0.209,-0.168 0.414,-0.349 0.608,-0.543 L 396.378,119.487 h 65.255 V 280.033 L 354.137,387.53 c -2.935,2.936 -2.935,7.693 0,10.628 0.183,0.183 0.374,0.355 0.571,0.516 1.378,1.123 3.061,1.685 4.743,1.685 1.682,0 3.366,-0.562 4.743,-1.685 0.197,-0.16 0.388,-0.333 0.571,-0.516 0.003,-0.003 0,0 0.003,-0.003 L 496.972,265.95 Z m -274.295,-66.556 -21.526,7.599 -14.342,-14.342 7.599,-21.526 z" />
	</g>
</g>
<g
   style="fill:#f39d23;fill-opacity:1"
   transform="matrix(0.09765625,0,0,0.09765625,0,-0.08007812)"
   id="g14">
</g>
<g
   style="fill:#f39d23;fill-opacity:1"
   transform="matrix(0.09765625,0,0,0.09765625,0,-0.08007812)"
   id="g16">
</g>
<g
   style="fill:#f39d23;fill-opacity:1"
   transform="matrix(0.09765625,0,0,0.09765625,0,-0.08007812)"
   id="g18">
</g>
<g
   style="fill:#f39d23;fill-opacity:1"
   transform="matrix(0.09765625,0,0,0.09765625,0,-0.08007812)"
   id="g20">
</g>
<g
   style="fill:#f39d23;fill-opacity:1"
   transform="matrix(0.09765625,0,0,0.09765625,0,-0.08007812)"
   id="g22">
</g>
<g
   style="fill:#f39d23;fill-opacity:1"
   transform="matrix(0.09765625,0,0,0.09765625,0,-0.08007812)"
   id="g24">
</g>
<g
   style="fill:#f39d23;fill-opacity:1"
   transform="matrix(0.09765625,0,0,0.09765625,0,-0.08007812)"
   id="g26">
</g>
<g
   style="fill:#f39d23;fill-opacity:1"
   transform="matrix(0.09765625,0,0,0.09765625,0,-0.08007812)"
   id="g28">
</g>
<g
   style="fill:#f39d23;fill-opacity:1"
   transform="matrix(0.09765625,0,0,0.09765625,0,-0.08007812)"
   id="g30">
</g>
<g
   style="fill:#f39d23;fill-opacity:1"
   transform="matrix(0.09765625,0,0,0.09765625,0,-0.08007812)"
   id="g32">
</g>
<g
   style="fill:#f39d23;fill-opacity:1"
   transform="matrix(0.09765625,0,0,0.09765625,0,-0.08007812)"
   id="g34">
</g>
<g
   style="fill:#f39d23;fill-opacity:1"
   transform="matrix(0.09765625,0,0,0.09765625,0,-0.08007812)"
   id="g36">
</g>
<g
   style="fill:#f39d23;fill-opacity:1"
   transform="matrix(0.09765625,0,0,0.09765625,0,-0.08007812)"
   id="g38">
</g>
<g
   style="fill:#f39d23;fill-opacity:1"
   transform="matrix(0.09765625,0,0,0.09765625,0,-0.08007812)"
   id="g40">
</g>
<g
   style="fill:#f39d23;fill-opacity:1"
   transform="matrix(0.09765625,0,0,0.09765625,0,-0.08007812)"
   id="g42">
</g>
</svg>