<?xml version="1.0" encoding="UTF-8" standalone="no"?>
<svg
   xmlns:dc="http://purl.org/dc/elements/1.1/"
   xmlns:cc="http://creativecommons.org/ns#"
   xmlns:rdf="http://www.w3.org/1999/02/22-rdf-syntax-ns#"
   xmlns:svg="http://www.w3.org/2000/svg"
   xmlns="http://www.w3.org/2000/svg"
   version="1.1"
   width="50"
   viewBox="0 0 50.000391 50.000585"
   height="50.000195"
   enable-background="new 0 0 512.004 512.004"
   id="Capa_1">
  <metadata
     id="metadata35">
    <rdf:RDF>
      <cc:Work
         rdf:about="">
        <dc:format>image/svg+xml</dc:format>
        <dc:type
           rdf:resource="http://purl.org/dc/dcmitype/StillImage" />
        <dc:title></dc:title>
      </cc:Work>
    </rdf:RDF>
  </metadata>
  <defs
     id="defs33" />
  <g
     style="fill:#f39d23;fill-opacity:1"
     transform="matrix(0.09765663,0,0,0.09765663,-9.765663e-5,0)"
     id="g28">
    <path
       style="fill:#f39d23;fill-opacity:1"
       id="path2"
       d="m 206.708,88.558 c -2.93,-2.929 -7.678,-2.929 -10.607,0 l -18.267,18.267 -10.37,-10.371 c -2.929,-2.929 -7.678,-2.929 -10.606,0 -2.93,2.929 -2.93,7.677 -0.001,10.606 l 15.674,15.674 c 2.928,2.927 7.677,2.929 10.607,0 l 23.57,-23.57 c 2.929,-2.928 2.929,-7.677 0,-10.606 z" />
    <path
       style="fill:#f39d23;fill-opacity:1"
       id="path4"
       d="m 206.708,156.205 c -2.93,-2.929 -7.678,-2.929 -10.607,0 l -18.267,18.267 -10.37,-10.371 c -2.929,-2.929 -7.678,-2.93 -10.606,0 -2.93,2.929 -2.93,7.677 -0.001,10.606 l 15.674,15.674 c 2.928,2.927 7.677,2.929 10.607,0 l 23.57,-23.57 c 2.929,-2.929 2.929,-7.678 0,-10.606 z" />
    <path
       style="fill:#f39d23;fill-opacity:1"
       id="path6"
       d="m 206.708,225.226 c -2.93,-2.929 -7.678,-2.929 -10.607,0 l -18.267,18.267 -10.37,-10.371 c -2.929,-2.929 -7.678,-2.929 -10.606,0 -2.93,2.929 -2.93,7.677 -0.001,10.606 l 15.674,15.674 c 2.928,2.927 7.677,2.929 10.607,0 l 23.57,-23.57 c 2.929,-2.928 2.929,-7.677 0,-10.606 z" />
    <path
       style="fill:#f39d23;fill-opacity:1"
       id="path8"
       d="m 34.506,512.004 h 442.992 c 19.026,0 34.505,-15.597 34.505,-34.769 v -20.213 c 0,-7.376 -5.975,-13.376 -13.319,-13.376 H 473.04 c 6.131,-7.405 9.809,-16.846 9.809,-26.916 V 308.89 c 0,-4.142 -3.357,-7.5 -7.5,-7.5 -4.143,0 -7.5,3.358 -7.5,7.5 v 107.839 c 0,13.105 -9.632,24.578 -22.494,26.916 H 66.649 C 53.787,441.307 44.156,429.835 44.156,416.729 V 155.283 c 0,-15.084 12.271,-27.355 27.355,-27.355 h 40.5 v 16.078 h -37.79 c -7.583,0 -13.753,6.17 -13.753,13.754 v 256.102 c 0,7.584 6.17,13.754 13.753,13.754 h 363.561 c 7.583,0 13.753,-6.17 13.753,-13.754 V 157.759 c 0,-7.584 -6.17,-13.754 -13.753,-13.754 h -37.789 v -16.078 h 40.5 c 15.084,0 27.355,12.271 27.355,27.355 V 273.89 c 0,4.142 3.357,7.5 7.5,7.5 4.143,0 7.5,-3.358 7.5,-7.5 V 155.283 c 0,-23.355 -19.001,-42.355 -42.355,-42.355 h -40.5 v -92.3 C 399.993,9.253 390.739,0 379.365,0 H 273.502 c -4.143,0 -7.5,3.358 -7.5,7.5 0,4.142 3.357,7.5 7.5,7.5 h 105.863 c 3.104,0 5.628,2.524 5.628,5.627 v 345.589 c 0,2.977 -2.422,5.399 -5.399,5.399 H 132.411 c -2.978,0 -5.399,-2.422 -5.399,-5.399 0,-10.891 0,-281.388 0,-292.995 h 37.594 c 11.374,0 20.627,-9.253 20.627,-20.627 V 15 h 53.27 c 4.143,0 7.5,-3.358 7.5,-7.5 0,-4.142 -3.357,-7.5 -7.5,-7.5 h -60.77 c -2.044,0 -3.956,0.85 -5.304,2.197 l -58.221,58.221 c -1.337,1.337 -2.196,3.27 -2.196,5.303 v 47.206 h -40.5 c -23.354,0 -42.355,19 -42.355,42.355 v 261.447 c 0,10.07 3.677,19.511 9.809,26.916 H 13.32 c -7.345,0 -13.319,6 -13.319,13.376 v 20.213 c 0,19.173 15.478,34.77 34.505,34.77 z M 170.232,25.607 v 26.987 c 0,3.103 -2.524,5.627 -5.627,5.627 h -26.987 z m -37.821,361.009 h 247.183 c 11.246,0 20.399,-9.149 20.399,-20.399 V 159.005 h 36.542 v 253.61 H 75.469 v -253.61 h 36.543 v 207.211 c 0,11.248 9.15,20.4 20.399,20.4 z m 58.598,72.03 h 129.986 v 6.061 c 0,2.503 -2.062,4.618 -4.501,4.618 H 195.51 c -2.439,0 -4.501,-2.115 -4.501,-4.618 z m -176.008,0 h 161.008 v 6.061 c 0,10.817 8.748,19.618 19.501,19.618 h 120.984 c 10.753,0 19.501,-8.801 19.501,-19.618 v -6.061 h 161.008 v 18.589 c 0,10.901 -8.75,19.769 -19.505,19.769 H 34.506 c -10.755,0 -19.505,-8.868 -19.505,-19.769 z" />
    <path
       style="fill:#f39d23;fill-opacity:1"
       id="path10"
       d="m 354.58,84.986 h -122.2 c -4.143,0 -7.5,3.358 -7.5,7.5 0,4.142 3.357,7.5 7.5,7.5 h 122.2 c 4.143,0 7.5,-3.358 7.5,-7.5 0,-4.142 -3.357,-7.5 -7.5,-7.5 z" />
    <path
       style="fill:#f39d23;fill-opacity:1"
       id="path12"
       d="m 354.58,114.586 h -122.2 c -4.143,0 -7.5,3.358 -7.5,7.5 0,4.142 3.357,7.5 7.5,7.5 h 122.2 c 4.143,0 7.5,-3.358 7.5,-7.5 0,-4.142 -3.357,-7.5 -7.5,-7.5 z" />
    <path
       style="fill:#f39d23;fill-opacity:1"
       id="path14"
       d="m 354.58,154.008 h -122.2 c -4.143,0 -7.5,3.358 -7.5,7.5 0,4.142 3.357,7.5 7.5,7.5 h 122.2 c 4.143,0 7.5,-3.358 7.5,-7.5 0,-4.142 -3.357,-7.5 -7.5,-7.5 z" />
    <path
       style="fill:#f39d23;fill-opacity:1"
       id="path16"
       d="m 354.58,183.608 h -122.2 c -4.143,0 -7.5,3.358 -7.5,7.5 0,4.142 3.357,7.5 7.5,7.5 h 122.2 c 4.143,0 7.5,-3.358 7.5,-7.5 0,-4.142 -3.357,-7.5 -7.5,-7.5 z" />
    <path
       style="fill:#f39d23;fill-opacity:1"
       id="path18"
       d="m 354.58,223.029 h -122.2 c -4.143,0 -7.5,3.358 -7.5,7.5 0,4.142 3.357,7.5 7.5,7.5 h 122.2 c 4.143,0 7.5,-3.358 7.5,-7.5 0,-4.142 -3.357,-7.5 -7.5,-7.5 z" />
    <path
       style="fill:#f39d23;fill-opacity:1"
       id="path20"
       d="m 354.58,252.629 h -122.2 c -4.143,0 -7.5,3.358 -7.5,7.5 0,4.142 3.357,7.5 7.5,7.5 h 122.2 c 4.143,0 7.5,-3.358 7.5,-7.5 0,-4.142 -3.357,-7.5 -7.5,-7.5 z" />
    <path
       style="fill:#f39d23;fill-opacity:1"
       id="path22"
       d="m 196.101,294.247 -18.267,18.267 -10.37,-10.371 c -2.93,-2.929 -7.678,-2.929 -10.607,0 -2.929,2.929 -2.929,7.678 0,10.606 l 15.674,15.674 c 2.93,2.929 7.678,2.929 10.607,0 l 23.57,-23.57 c 2.929,-2.929 2.929,-7.678 0,-10.606 -2.93,-2.929 -7.678,-2.929 -10.607,0 z" />
    <path
       style="fill:#f39d23;fill-opacity:1"
       id="path24"
       d="m 354.58,292.05 h -122.2 c -4.143,0 -7.5,3.358 -7.5,7.5 0,4.142 3.357,7.5 7.5,7.5 h 122.2 c 4.143,0 7.5,-3.358 7.5,-7.5 0,-4.142 -3.357,-7.5 -7.5,-7.5 z" />
    <path
       style="fill:#f39d23;fill-opacity:1"
       id="path26"
       d="m 354.58,321.65 h -122.2 c -4.143,0 -7.5,3.358 -7.5,7.5 0,4.142 3.357,7.5 7.5,7.5 h 122.2 c 4.143,0 7.5,-3.358 7.5,-7.5 0,-4.142 -3.357,-7.5 -7.5,-7.5 z" />
  </g>
</svg>
